<svg width="114" height="43" viewBox="0 0 114 43" fill="none" xmlns="http://www.w3.org/2000/svg">
<path opacity="0.6" d="M1.286 42L4.113 34.74H5.158L7.974 42H7.039L6.269 39.987H2.98L2.21 42H1.286ZM4.289 36.555L3.299 39.162H5.95L4.971 36.588L4.63 35.576H4.608L4.289 36.555ZM9.28472 42V36.5H9.99972L10.1207 37.402C10.4287 36.7273 11.0154 36.39 11.8807 36.39C11.9761 36.39 12.0787 36.3973 12.1887 36.412C12.3061 36.4267 12.4051 36.456 12.4857 36.5L12.3317 37.303C12.2511 37.2737 12.1631 37.2517 12.0677 37.237C11.9724 37.2223 11.8367 37.215 11.6607 37.215C11.4334 37.215 11.2024 37.281 10.9677 37.413C10.7404 37.545 10.5497 37.7467 10.3957 38.018C10.2417 38.282 10.1647 38.6193 10.1647 39.03V42H9.28472ZM15.8801 36.39C16.4447 36.39 16.9141 36.522 17.2881 36.786C17.6621 37.0427 17.9517 37.3983 18.1571 37.853L17.3211 38.249C17.2037 37.897 17.0241 37.6293 16.7821 37.446C16.5474 37.2553 16.2394 37.16 15.8581 37.16C15.3081 37.16 14.8754 37.347 14.5601 37.721C14.2521 38.0877 14.0981 38.5973 14.0981 39.25C14.0981 39.9027 14.2521 40.416 14.5601 40.79C14.8754 41.1567 15.3081 41.34 15.8581 41.34C16.2907 41.34 16.6354 41.241 16.8921 41.043C17.1487 40.845 17.3174 40.5663 17.3981 40.207L18.2121 40.493C18.0287 40.999 17.7391 41.395 17.3431 41.681C16.9544 41.967 16.4667 42.11 15.8801 42.11C15.3667 42.11 14.9084 41.9963 14.5051 41.769C14.1017 41.5417 13.7864 41.2153 13.5591 40.79C13.3317 40.3573 13.2181 39.844 13.2181 39.25C13.2181 38.656 13.3317 38.1463 13.5591 37.721C13.7864 37.2883 14.1017 36.9583 14.5051 36.731C14.9084 36.5037 15.3667 36.39 15.8801 36.39ZM19.7584 42V33.97H20.6384V37.325C20.829 36.995 21.082 36.7567 21.3974 36.61C21.7127 36.4633 22.0574 36.39 22.4314 36.39C22.8274 36.39 23.1867 36.467 23.5094 36.621C23.832 36.7677 24.0887 36.995 24.2794 37.303C24.4774 37.611 24.5764 38.0033 24.5764 38.48V42H23.6964V38.788C23.6964 38.1793 23.5644 37.7577 23.3004 37.523C23.0437 37.281 22.7247 37.16 22.3434 37.16C22.0794 37.16 21.8154 37.2223 21.5514 37.347C21.2874 37.4717 21.0674 37.677 20.8914 37.963C20.7227 38.2417 20.6384 38.6157 20.6384 39.085V42H19.7584ZM27.0089 35.444C26.8109 35.444 26.6496 35.3853 26.5249 35.268C26.4076 35.1433 26.3489 34.982 26.3489 34.784C26.3489 34.586 26.4076 34.4283 26.5249 34.311C26.6496 34.1863 26.8109 34.124 27.0089 34.124C27.2069 34.124 27.3646 34.1863 27.4819 34.311C27.6066 34.4283 27.6689 34.586 27.6689 34.784C27.6689 34.982 27.6066 35.1433 27.4819 35.268C27.3646 35.3853 27.2069 35.444 27.0089 35.444ZM27.4489 36.5V42H26.5689V36.5H27.4489ZM32.7908 36.5V37.259H30.7888V40.482C30.7888 40.7533 30.8658 40.955 31.0198 41.087C31.1738 41.219 31.3718 41.285 31.6138 41.285C31.8264 41.285 32.0098 41.2483 32.1638 41.175C32.3178 41.1017 32.4571 41.0027 32.5818 40.878L32.8898 41.615C32.7211 41.769 32.5194 41.89 32.2848 41.978C32.0574 42.066 31.7934 42.11 31.4928 42.11C31.2141 42.11 30.9538 42.0623 30.7118 41.967C30.4698 41.8643 30.2754 41.7067 30.1288 41.494C29.9894 41.274 29.9161 40.988 29.9088 40.636V37.259H28.8088V36.5H29.9088V35.18L30.7888 34.938V36.5H32.7908ZM36.3982 42.11C35.8775 42.11 35.4118 41.9963 35.0012 41.769C34.5978 41.5417 34.2825 41.2153 34.0552 40.79C33.8278 40.3573 33.7142 39.844 33.7142 39.25C33.7142 38.656 33.8278 38.1463 34.0552 37.721C34.2825 37.2883 34.5942 36.9583 34.9902 36.731C35.3862 36.5037 35.8372 36.39 36.3432 36.39C36.8565 36.39 37.2928 36.5 37.6522 36.72C38.0188 36.94 38.2975 37.2407 38.4882 37.622C38.6788 37.996 38.7742 38.4177 38.7742 38.887C38.7742 39.0117 38.7705 39.1253 38.7632 39.228C38.7558 39.3307 38.7448 39.4223 38.7302 39.503H34.5832C34.6272 40.0823 34.8068 40.5333 35.1222 40.856C35.4375 41.1787 35.8555 41.34 36.3762 41.34C36.7795 41.34 37.1058 41.263 37.3552 41.109C37.6118 40.955 37.8172 40.746 37.9712 40.482L38.6642 40.889C38.4588 41.263 38.1618 41.56 37.7732 41.78C37.3918 42 36.9335 42.11 36.3982 42.11ZM36.3212 37.16C35.8592 37.16 35.4778 37.2993 35.1772 37.578C34.8838 37.8493 34.6968 38.2307 34.6162 38.722H37.8942C37.8722 38.2233 37.7182 37.8383 37.4322 37.567C37.1462 37.2957 36.7758 37.16 36.3212 37.16ZM42.7248 36.39C43.2895 36.39 43.7588 36.522 44.1328 36.786C44.5068 37.0427 44.7965 37.3983 45.0018 37.853L44.1658 38.249C44.0485 37.897 43.8688 37.6293 43.6268 37.446C43.3921 37.2553 43.0841 37.16 42.7028 37.16C42.1528 37.16 41.7201 37.347 41.4048 37.721C41.0968 38.0877 40.9428 38.5973 40.9428 39.25C40.9428 39.9027 41.0968 40.416 41.4048 40.79C41.7201 41.1567 42.1528 41.34 42.7028 41.34C43.1355 41.34 43.4801 41.241 43.7368 41.043C43.9935 40.845 44.1621 40.5663 44.2428 40.207L45.0568 40.493C44.8735 40.999 44.5838 41.395 44.1878 41.681C43.7991 41.967 43.3115 42.11 42.7248 42.11C42.2115 42.11 41.7531 41.9963 41.3498 41.769C40.9465 41.5417 40.6311 41.2153 40.4038 40.79C40.1765 40.3573 40.0628 39.844 40.0628 39.25C40.0628 38.656 40.1765 38.1463 40.4038 37.721C40.6311 37.2883 40.9465 36.9583 41.3498 36.731C41.7531 36.5037 42.2115 36.39 42.7248 36.39ZM49.9031 36.5V37.259H47.9011V40.482C47.9011 40.7533 47.9781 40.955 48.1321 41.087C48.2861 41.219 48.4841 41.285 48.7261 41.285C48.9387 41.285 49.1221 41.2483 49.2761 41.175C49.4301 41.1017 49.5694 41.0027 49.6941 40.878L50.0021 41.615C49.8334 41.769 49.6317 41.89 49.3971 41.978C49.1697 42.066 48.9057 42.11 48.6051 42.11C48.3264 42.11 48.0661 42.0623 47.8241 41.967C47.5821 41.8643 47.3877 41.7067 47.2411 41.494C47.1017 41.274 47.0284 40.988 47.0211 40.636V37.259H45.9211V36.5H47.0211V35.18L47.9011 34.938V36.5H49.9031ZM53.2025 42.11C52.8505 42.11 52.5168 42.044 52.2015 41.912C51.8935 41.78 51.6405 41.5673 51.4425 41.274C51.2518 40.9733 51.1565 40.5847 51.1565 40.108V36.5H52.0365V39.877C52.0365 40.4343 52.1575 40.8193 52.3995 41.032C52.6415 41.2373 52.9825 41.34 53.4225 41.34C53.7011 41.34 53.9651 41.2777 54.2145 41.153C54.4638 41.021 54.6691 40.8193 54.8305 40.548C54.9918 40.2767 55.0725 39.9247 55.0725 39.492V36.5H55.9525V42H55.1825L55.1275 41.164C54.9368 41.494 54.6765 41.736 54.3465 41.89C54.0238 42.0367 53.6425 42.11 53.2025 42.11ZM58.0005 42V36.5H58.7155L58.8365 37.402C59.1445 36.7273 59.7312 36.39 60.5965 36.39C60.6919 36.39 60.7945 36.3973 60.9045 36.412C61.0219 36.4267 61.1209 36.456 61.2015 36.5L61.0475 37.303C60.9669 37.2737 60.8789 37.2517 60.7835 37.237C60.6882 37.2223 60.5525 37.215 60.3765 37.215C60.1492 37.215 59.9182 37.281 59.6835 37.413C59.4562 37.545 59.2655 37.7467 59.1115 38.018C58.9575 38.282 58.8805 38.6193 58.8805 39.03V42H58.0005ZM64.6179 42.11C64.0972 42.11 63.6316 41.9963 63.2209 41.769C62.8176 41.5417 62.5022 41.2153 62.2749 40.79C62.0476 40.3573 61.9339 39.844 61.9339 39.25C61.9339 38.656 62.0476 38.1463 62.2749 37.721C62.5022 37.2883 62.8139 36.9583 63.2099 36.731C63.6059 36.5037 64.0569 36.39 64.5629 36.39C65.0762 36.39 65.5126 36.5 65.8719 36.72C66.2386 36.94 66.5172 37.2407 66.7079 37.622C66.8986 37.996 66.9939 38.4177 66.9939 38.887C66.9939 39.0117 66.9902 39.1253 66.9829 39.228C66.9756 39.3307 66.9646 39.4223 66.9499 39.503H62.8029C62.8469 40.0823 63.0266 40.5333 63.3419 40.856C63.6572 41.1787 64.0752 41.34 64.5959 41.34C64.9992 41.34 65.3256 41.263 65.5749 41.109C65.8316 40.955 66.0369 40.746 66.1909 40.482L66.8839 40.889C66.6786 41.263 66.3816 41.56 65.9929 41.78C65.6116 42 65.1532 42.11 64.6179 42.11ZM64.5409 37.16C64.0789 37.16 63.6976 37.2993 63.3969 37.578C63.1036 37.8493 62.9166 38.2307 62.8359 38.722H66.1139C66.0919 38.2233 65.9379 37.8383 65.6519 37.567C65.3659 37.2957 64.9956 37.16 64.5409 37.16ZM74.3966 42.11C73.8612 42.11 73.3662 41.9963 72.9116 41.769C72.4642 41.5417 72.1196 41.219 71.8776 40.801L72.6256 40.262C72.7869 40.5993 73.0216 40.8633 73.3296 41.054C73.6449 41.2447 74.0226 41.34 74.4626 41.34C74.8512 41.34 75.1556 41.2667 75.3756 41.12C75.5956 40.966 75.7056 40.768 75.7056 40.526C75.7056 40.372 75.6542 40.2327 75.5516 40.108C75.4562 39.976 75.2692 39.8807 74.9906 39.822L73.6706 39.547C73.1352 39.437 72.7502 39.2537 72.5156 38.997C72.2882 38.7403 72.1746 38.4213 72.1746 38.04C72.1746 37.7393 72.2589 37.4643 72.4276 37.215C72.6036 36.9657 72.8492 36.7677 73.1646 36.621C73.4872 36.467 73.8649 36.39 74.2976 36.39C74.8402 36.39 75.2986 36.4963 75.6726 36.709C76.0466 36.9217 76.3252 37.2223 76.5086 37.611L75.7716 38.095C75.6469 37.7723 75.4452 37.5377 75.1666 37.391C74.8879 37.237 74.5982 37.16 74.2976 37.16C73.9016 37.16 73.5936 37.2407 73.3736 37.402C73.1536 37.5633 73.0436 37.765 73.0436 38.007C73.0436 38.1683 73.0986 38.3187 73.2086 38.458C73.3186 38.59 73.5239 38.6853 73.8246 38.744L75.1996 39.03C75.7129 39.1327 76.0722 39.3013 76.2776 39.536C76.4829 39.7707 76.5856 40.0567 76.5856 40.394C76.5856 40.9147 76.3839 41.3327 75.9806 41.648C75.5772 41.956 75.0492 42.11 74.3966 42.11ZM81.5173 36.5V37.259H79.5153V40.482C79.5153 40.7533 79.5923 40.955 79.7463 41.087C79.9003 41.219 80.0983 41.285 80.3403 41.285C80.553 41.285 80.7363 41.2483 80.8903 41.175C81.0443 41.1017 81.1837 41.0027 81.3083 40.878L81.6163 41.615C81.4477 41.769 81.246 41.89 81.0113 41.978C80.784 42.066 80.52 42.11 80.2193 42.11C79.9407 42.11 79.6803 42.0623 79.4383 41.967C79.1963 41.8643 79.002 41.7067 78.8553 41.494C78.716 41.274 78.6427 40.988 78.6353 40.636V37.259H77.5353V36.5H78.6353V35.18L79.5153 34.938V36.5H81.5173ZM84.8167 42.11C84.4647 42.11 84.1311 42.044 83.8157 41.912C83.5077 41.78 83.2547 41.5673 83.0567 41.274C82.8661 40.9733 82.7707 40.5847 82.7707 40.108V36.5H83.6507V39.877C83.6507 40.4343 83.7717 40.8193 84.0137 41.032C84.2557 41.2373 84.5967 41.34 85.0367 41.34C85.3154 41.34 85.5794 41.2777 85.8287 41.153C86.0781 41.021 86.2834 40.8193 86.4447 40.548C86.6061 40.2767 86.6867 39.9247 86.6867 39.492V36.5H87.5667V42H86.7967L86.7417 41.164C86.5511 41.494 86.2907 41.736 85.9607 41.89C85.6381 42.0367 85.2567 42.11 84.8167 42.11ZM91.7598 42.11C91.3051 42.11 90.8871 41.9963 90.5058 41.769C90.1245 41.5417 89.8201 41.2153 89.5928 40.79C89.3655 40.3573 89.2518 39.844 89.2518 39.25C89.2518 38.6413 89.3728 38.1243 89.6148 37.699C89.8568 37.2737 90.1758 36.951 90.5718 36.731C90.9678 36.5037 91.3931 36.39 91.8478 36.39C92.2438 36.39 92.5958 36.4817 92.9038 36.665C93.2118 36.841 93.4391 37.083 93.5858 37.391V33.97H94.4658V42H93.6958L93.6408 40.966C93.4868 41.34 93.2375 41.626 92.8928 41.824C92.5481 42.0147 92.1705 42.11 91.7598 42.11ZM91.8478 41.34C92.3685 41.34 92.7865 41.1457 93.1018 40.757C93.4245 40.3683 93.5858 39.8403 93.5858 39.173C93.5858 38.5423 93.4281 38.051 93.1128 37.699C92.7975 37.3397 92.3905 37.16 91.8918 37.16C91.3345 37.16 90.9018 37.3507 90.5938 37.732C90.2858 38.1133 90.1318 38.6193 90.1318 39.25C90.1318 39.8807 90.2821 40.3867 90.5828 40.768C90.8835 41.1493 91.3051 41.34 91.8478 41.34ZM96.9513 35.444C96.7533 35.444 96.5919 35.3853 96.4673 35.268C96.3499 35.1433 96.2913 34.982 96.2913 34.784C96.2913 34.586 96.3499 34.4283 96.4673 34.311C96.5919 34.1863 96.7533 34.124 96.9513 34.124C97.1493 34.124 97.3069 34.1863 97.4243 34.311C97.5489 34.4283 97.6113 34.586 97.6113 34.784C97.6113 34.982 97.5489 35.1433 97.4243 35.268C97.3069 35.3853 97.1493 35.444 96.9513 35.444ZM97.3913 36.5V42H96.5113V36.5H97.3913ZM101.71 36.39C102.231 36.39 102.689 36.5037 103.085 36.731C103.488 36.9583 103.804 37.2883 104.031 37.721C104.258 38.1463 104.372 38.656 104.372 39.25C104.372 39.844 104.258 40.3573 104.031 40.79C103.804 41.2153 103.488 41.5417 103.085 41.769C102.689 41.9963 102.231 42.11 101.71 42.11C101.197 42.11 100.738 41.9963 100.335 41.769C99.9318 41.5417 99.6165 41.2153 99.3892 40.79C99.1618 40.3573 99.0482 39.844 99.0482 39.25C99.0482 38.656 99.1618 38.1463 99.3892 37.721C99.6165 37.2883 99.9318 36.9583 100.335 36.731C100.738 36.5037 101.197 36.39 101.71 36.39ZM101.71 37.149C101.153 37.149 100.716 37.336 100.401 37.71C100.086 38.084 99.9282 38.5973 99.9282 39.25C99.9282 39.9027 100.086 40.416 100.401 40.79C100.716 41.164 101.153 41.351 101.71 41.351C102.267 41.351 102.704 41.164 103.019 40.79C103.334 40.416 103.492 39.9027 103.492 39.25C103.492 38.5973 103.334 38.084 103.019 37.71C102.704 37.336 102.267 37.149 101.71 37.149Z" fill="white"/>
<path d="M5.684 23.304H13.16V27H1.82V7.4H5.684V23.304ZM25.5537 13H29.1657V27H25.5537V25.348C24.4711 26.7107 22.9497 27.392 20.9897 27.392C19.1231 27.392 17.5177 26.6827 16.1737 25.264C14.8484 23.8267 14.1857 22.072 14.1857 20C14.1857 17.928 14.8484 16.1827 16.1737 14.764C17.5177 13.3267 19.1231 12.608 20.9897 12.608C22.9497 12.608 24.4711 13.2893 25.5537 14.652V13ZM18.8897 22.856C19.6177 23.584 20.5417 23.948 21.6617 23.948C22.7817 23.948 23.7057 23.584 24.4337 22.856C25.1804 22.1093 25.5537 21.1573 25.5537 20C25.5537 18.8427 25.1804 17.9 24.4337 17.172C23.7057 16.4253 22.7817 16.052 21.6617 16.052C20.5417 16.052 19.6177 16.4253 18.8897 17.172C18.1617 17.9 17.7977 18.8427 17.7977 20C17.7977 21.1573 18.1617 22.1093 18.8897 22.856ZM36.0531 15.408C36.3891 14.512 36.9397 13.84 37.7051 13.392C38.4891 12.944 39.3571 12.72 40.3091 12.72V16.752C39.2077 16.6213 38.2184 16.8453 37.3411 17.424C36.4824 18.0027 36.0531 18.964 36.0531 20.308V27H32.4411V13H36.0531V15.408ZM45.316 16.976C45.316 17.3493 45.5587 17.6573 46.044 17.9C46.548 18.124 47.1547 18.3293 47.864 18.516C48.5734 18.684 49.2827 18.908 49.992 19.188C50.7014 19.4493 51.2987 19.8973 51.784 20.532C52.288 21.1667 52.54 21.96 52.54 22.912C52.54 24.3493 51.9987 25.46 50.916 26.244C49.852 27.0093 48.5174 27.392 46.912 27.392C44.0374 27.392 42.0774 26.2813 41.032 24.06L44.168 22.296C44.5787 23.5093 45.4934 24.116 46.912 24.116C48.2 24.116 48.844 23.7147 48.844 22.912C48.844 22.5387 48.592 22.24 48.088 22.016C47.6027 21.7733 47.0054 21.5587 46.296 21.372C45.5867 21.1853 44.8774 20.952 44.168 20.672C43.4587 20.392 42.852 19.9533 42.348 19.356C41.8627 18.74 41.62 17.9747 41.62 17.06C41.62 15.6787 42.124 14.596 43.132 13.812C44.1587 13.0093 45.428 12.608 46.94 12.608C48.0787 12.608 49.1147 12.8693 50.048 13.392C50.9814 13.896 51.7187 14.624 52.26 15.576L49.18 17.256C48.732 16.304 47.9854 15.828 46.94 15.828C46.4734 15.828 46.0814 15.9307 45.764 16.136C45.4654 16.3413 45.316 16.6213 45.316 16.976ZM66.5995 25.264C65.1622 26.6827 63.4075 27.392 61.3355 27.392C59.2635 27.392 57.5089 26.6827 56.0715 25.264C54.6529 23.8267 53.9435 22.072 53.9435 20C53.9435 17.928 54.6529 16.1827 56.0715 14.764C57.5089 13.3267 59.2635 12.608 61.3355 12.608C63.4075 12.608 65.1622 13.3267 66.5995 14.764C68.0369 16.1827 68.7555 17.928 68.7555 20C68.7555 22.072 68.0369 23.8267 66.5995 25.264ZM58.6195 22.772C59.3475 23.5 60.2529 23.864 61.3355 23.864C62.4182 23.864 63.3235 23.5 64.0515 22.772C64.7795 22.044 65.1435 21.12 65.1435 20C65.1435 18.88 64.7795 17.956 64.0515 17.228C63.3235 16.5 62.4182 16.136 61.3355 16.136C60.2529 16.136 59.3475 16.5 58.6195 17.228C57.9102 17.956 57.5555 18.88 57.5555 20C57.5555 21.12 57.9102 22.044 58.6195 22.772ZM79.0805 12.608C80.6112 12.608 81.8712 13.1213 82.8605 14.148C83.8685 15.1747 84.3725 16.5933 84.3725 18.404V27H80.7605V18.852C80.7605 17.9187 80.5085 17.2093 80.0045 16.724C79.5005 16.22 78.8285 15.968 77.9885 15.968C77.0552 15.968 76.3085 16.2573 75.7485 16.836C75.1885 17.4147 74.9085 18.2827 74.9085 19.44V27H71.2965V13H74.9085V14.568C75.7859 13.2613 77.1765 12.608 79.0805 12.608Z" fill="white"/>
</svg>
