<svg width="130" height="65" viewBox="0 0 130 65" fill="none" xmlns="http://www.w3.org/2000/svg">
<path opacity="0.6" d="M23.039 50H23.974L21.158 42.74H20.113L17.286 50H18.21L18.98 47.987H22.269L23.039 50ZM19.299 47.162L20.289 44.555L20.608 43.576H20.63L20.971 44.588L21.95 47.162H19.299ZM27.8807 44.39C27.0227 44.39 26.4287 44.731 26.1207 45.402L25.9997 44.5H25.2847V50H26.1647V47.03C26.1647 45.798 26.9567 45.215 27.6167 45.215C27.9027 45.215 28.1447 45.27 28.3097 45.358L28.4857 44.5C28.3207 44.412 28.0677 44.39 27.8807 44.39ZM31.9241 44.39C30.2631 44.39 29.2621 45.468 29.2621 47.25C29.2621 49.032 30.2631 50.11 31.9241 50.11C33.0901 50.11 33.8821 49.505 34.2561 48.493L33.4421 48.207C33.2771 48.933 32.7601 49.34 31.9021 49.34C30.8021 49.34 30.1421 48.559 30.1421 47.25C30.1421 45.941 30.8021 45.16 31.9021 45.16C32.6611 45.16 33.1341 45.545 33.3651 46.249L34.2011 45.853C33.7941 44.951 33.0571 44.39 31.9241 44.39ZM38.4851 44.39C37.7371 44.39 37.0771 44.665 36.6921 45.325V41.97H35.8121V50H36.6921V47.085C36.6921 45.677 37.5941 45.16 38.3971 45.16C39.1561 45.16 39.7501 45.567 39.7501 46.788V50H40.6301V46.48C40.6301 45.061 39.6621 44.39 38.4851 44.39ZM43.0626 43.444C43.4586 43.444 43.7226 43.18 43.7226 42.784C43.7226 42.388 43.4586 42.124 43.0626 42.124C42.6666 42.124 42.4026 42.388 42.4026 42.784C42.4026 43.18 42.6666 43.444 43.0626 43.444ZM43.5026 44.5H42.6226V50H43.5026V44.5ZM48.6025 48.878C48.3495 49.131 48.0635 49.285 47.6675 49.285C47.1835 49.285 46.8425 49.021 46.8425 48.482V45.259H48.8775V44.5H46.8425V42.938L45.9625 43.18V44.5H44.8625V45.259H45.9625V48.636C45.9735 49.703 46.6775 50.11 47.4915 50.11C48.0965 50.11 48.5695 49.923 48.9105 49.615L48.6025 48.878ZM54.8719 46.964C54.8719 45.545 54.0029 44.39 52.4079 44.39C50.7469 44.39 49.8119 45.468 49.8119 47.25C49.8119 49.032 50.8129 50.11 52.4739 50.11C53.6619 50.11 54.3439 49.659 54.7619 48.911L54.0249 48.526C53.8269 49.054 53.2769 49.34 52.4739 49.34C51.4619 49.34 50.7909 48.691 50.6809 47.58H54.8279C54.8499 47.426 54.8719 47.217 54.8719 46.964ZM52.4079 45.16C53.3429 45.16 53.9039 45.787 54.0249 46.799H50.6919C50.8239 45.765 51.4289 45.16 52.4079 45.16ZM58.8655 44.39C57.2045 44.39 56.2035 45.468 56.2035 47.25C56.2035 49.032 57.2045 50.11 58.8655 50.11C60.0315 50.11 60.8235 49.505 61.1975 48.493L60.3835 48.207C60.2185 48.933 59.7015 49.34 58.8435 49.34C57.7435 49.34 57.0835 48.559 57.0835 47.25C57.0835 45.941 57.7435 45.16 58.8435 45.16C59.6025 45.16 60.0755 45.545 60.3065 46.249L61.1425 45.853C60.7355 44.951 59.9985 44.39 58.8655 44.39ZM65.8115 48.878C65.5585 49.131 65.2725 49.285 64.8765 49.285C64.3925 49.285 64.0515 49.021 64.0515 48.482V45.259H66.0865V44.5H64.0515V42.938L63.1715 43.18V44.5H62.0715V45.259H63.1715V48.636C63.1825 49.703 63.8865 50.11 64.7005 50.11C65.3055 50.11 65.7785 49.923 66.1195 49.615L65.8115 48.878ZM71.2449 44.5V47.492C71.2449 48.79 70.4199 49.34 69.4849 49.34C68.6929 49.34 68.1869 48.999 68.1869 47.866V44.5H67.3069V48.097C67.3069 49.549 68.2419 50.11 69.3309 50.11C70.2109 50.11 70.9149 49.824 71.2999 49.164L71.3549 50H72.1249V44.5H71.2449ZM76.7684 44.39C75.9104 44.39 75.3164 44.731 75.0084 45.402L74.8874 44.5H74.1724V50H75.0524V47.03C75.0524 45.798 75.8444 45.215 76.5044 45.215C76.7904 45.215 77.0324 45.27 77.1974 45.358L77.3734 44.5C77.2084 44.412 76.9554 44.39 76.7684 44.39ZM83.2098 46.964C83.2098 45.545 82.3408 44.39 80.7458 44.39C79.0848 44.39 78.1498 45.468 78.1498 47.25C78.1498 49.032 79.1508 50.11 80.8118 50.11C81.9998 50.11 82.6818 49.659 83.0998 48.911L82.3628 48.526C82.1648 49.054 81.6148 49.34 80.8118 49.34C79.7998 49.34 79.1288 48.691 79.0188 47.58H83.1658C83.1878 47.426 83.2098 47.217 83.2098 46.964ZM80.7458 45.16C81.6808 45.16 82.2418 45.787 82.3628 46.799H79.0298C79.1618 45.765 79.7668 45.16 80.7458 45.16ZM90.5014 50.11C91.9094 50.11 92.8004 49.439 92.8004 48.482C92.8004 47.58 92.2504 47.118 90.7104 46.865C89.5884 46.678 89.2254 46.436 89.2254 45.963C89.2254 45.556 89.7754 45.16 90.5124 45.16C91.2054 45.16 91.7004 45.424 91.9424 46.15L92.6904 45.71C92.3824 44.808 91.6894 44.39 90.5124 44.39C89.1704 44.39 88.3454 45.149 88.3454 46.04C88.3454 46.964 88.9174 47.393 90.4794 47.679C91.5794 47.877 91.9204 48.119 91.9204 48.526C91.9204 48.977 91.4914 49.34 90.5894 49.34C89.7974 49.34 89.1154 49.043 88.8514 48.372L88.1364 48.867C88.5544 49.714 89.4894 50.11 90.5014 50.11ZM97.4902 48.878C97.2372 49.131 96.9512 49.285 96.5552 49.285C96.0712 49.285 95.7302 49.021 95.7302 48.482V45.259H97.7652V44.5H95.7302V42.938L94.8502 43.18V44.5H93.7502V45.259H94.8502V48.636C94.8612 49.703 95.5652 50.11 96.3792 50.11C96.9842 50.11 97.4572 49.923 97.7982 49.615L97.4902 48.878ZM102.924 44.5V47.492C102.924 48.79 102.099 49.34 101.164 49.34C100.372 49.34 99.8656 48.999 99.8656 47.866V44.5H98.9856V48.097C98.9856 49.549 99.9206 50.11 101.01 50.11C101.89 50.11 102.594 49.824 102.979 49.164L103.034 50H103.804V44.5H102.924ZM109.855 41.97V45.358C109.514 44.786 108.854 44.39 108.029 44.39C106.5 44.39 105.521 45.457 105.521 47.25C105.521 49.043 106.5 50.11 108.029 50.11C108.898 50.11 109.591 49.67 109.91 49.043L109.965 50H110.735V41.97H109.855ZM108.128 49.34C107.05 49.34 106.401 48.526 106.401 47.25C106.401 45.974 107.05 45.16 108.128 45.16C109.173 45.16 109.855 45.941 109.855 47.184V47.316C109.855 48.559 109.173 49.34 108.128 49.34ZM113.22 43.444C113.616 43.444 113.88 43.18 113.88 42.784C113.88 42.388 113.616 42.124 113.22 42.124C112.824 42.124 112.56 42.388 112.56 42.784C112.56 43.18 112.824 43.444 113.22 43.444ZM113.66 44.5H112.78V50H113.66V44.5ZM118.023 44.39C116.362 44.39 115.361 45.468 115.361 47.25C115.361 49.032 116.362 50.11 118.023 50.11C119.684 50.11 120.685 49.032 120.685 47.25C120.685 45.468 119.684 44.39 118.023 44.39ZM118.023 45.149C119.134 45.149 119.805 45.941 119.805 47.25C119.805 48.559 119.134 49.351 118.023 49.351C116.912 49.351 116.241 48.559 116.241 47.25C116.241 45.941 116.912 45.149 118.023 45.149Z" fill="white"/>
<path d="M21.684 31.304H29.16V35H17.82V15.4H21.684V31.304ZM41.5537 21H45.1657V35H41.5537V33.348C40.4711 34.7107 38.9497 35.392 36.9897 35.392C35.1231 35.392 33.5177 34.6827 32.1737 33.264C30.8484 31.8267 30.1857 30.072 30.1857 28C30.1857 25.928 30.8484 24.1827 32.1737 22.764C33.5177 21.3267 35.1231 20.608 36.9897 20.608C38.9497 20.608 40.4711 21.2893 41.5537 22.652V21ZM34.8897 30.856C35.6177 31.584 36.5417 31.948 37.6617 31.948C38.7817 31.948 39.7057 31.584 40.4337 30.856C41.1804 30.1093 41.5537 29.1573 41.5537 28C41.5537 26.8427 41.1804 25.9 40.4337 25.172C39.7057 24.4253 38.7817 24.052 37.6617 24.052C36.5417 24.052 35.6177 24.4253 34.8897 25.172C34.1617 25.9 33.7977 26.8427 33.7977 28C33.7977 29.1573 34.1617 30.1093 34.8897 30.856ZM52.0531 23.408C52.3891 22.512 52.9397 21.84 53.7051 21.392C54.4891 20.944 55.3571 20.72 56.3091 20.72V24.752C55.2077 24.6213 54.2184 24.8453 53.3411 25.424C52.4824 26.0027 52.0531 26.964 52.0531 28.308V35H48.4411V21H52.0531V23.408ZM61.316 24.976C61.316 25.3493 61.5587 25.6573 62.044 25.9C62.548 26.124 63.1547 26.3293 63.864 26.516C64.5734 26.684 65.2827 26.908 65.992 27.188C66.7014 27.4493 67.2987 27.8973 67.784 28.532C68.288 29.1667 68.54 29.96 68.54 30.912C68.54 32.3493 67.9987 33.46 66.916 34.244C65.852 35.0093 64.5174 35.392 62.912 35.392C60.0374 35.392 58.0774 34.2813 57.032 32.06L60.168 30.296C60.5787 31.5093 61.4934 32.116 62.912 32.116C64.2 32.116 64.844 31.7147 64.844 30.912C64.844 30.5387 64.592 30.24 64.088 30.016C63.6027 29.7733 63.0054 29.5587 62.296 29.372C61.5867 29.1853 60.8774 28.952 60.168 28.672C59.4587 28.392 58.852 27.9533 58.348 27.356C57.8627 26.74 57.62 25.9747 57.62 25.06C57.62 23.6787 58.124 22.596 59.132 21.812C60.1587 21.0093 61.428 20.608 62.94 20.608C64.0787 20.608 65.1147 20.8693 66.048 21.392C66.9814 21.896 67.7187 22.624 68.26 23.576L65.18 25.256C64.732 24.304 63.9854 23.828 62.94 23.828C62.4734 23.828 62.0814 23.9307 61.764 24.136C61.4654 24.3413 61.316 24.6213 61.316 24.976ZM82.5995 33.264C81.1622 34.6827 79.4075 35.392 77.3355 35.392C75.2635 35.392 73.5089 34.6827 72.0715 33.264C70.6529 31.8267 69.9435 30.072 69.9435 28C69.9435 25.928 70.6529 24.1827 72.0715 22.764C73.5089 21.3267 75.2635 20.608 77.3355 20.608C79.4075 20.608 81.1622 21.3267 82.5995 22.764C84.0369 24.1827 84.7555 25.928 84.7555 28C84.7555 30.072 84.0369 31.8267 82.5995 33.264ZM74.6195 30.772C75.3475 31.5 76.2529 31.864 77.3355 31.864C78.4182 31.864 79.3235 31.5 80.0515 30.772C80.7795 30.044 81.1435 29.12 81.1435 28C81.1435 26.88 80.7795 25.956 80.0515 25.228C79.3235 24.5 78.4182 24.136 77.3355 24.136C76.2529 24.136 75.3475 24.5 74.6195 25.228C73.9102 25.956 73.5555 26.88 73.5555 28C73.5555 29.12 73.9102 30.044 74.6195 30.772ZM95.0805 20.608C96.6112 20.608 97.8712 21.1213 98.8605 22.148C99.8685 23.1747 100.373 24.5933 100.373 26.404V35H96.7605V26.852C96.7605 25.9187 96.5085 25.2093 96.0045 24.724C95.5005 24.22 94.8285 23.968 93.9885 23.968C93.0552 23.968 92.3085 24.2573 91.7485 24.836C91.1885 25.4147 90.9085 26.2827 90.9085 27.44V35H87.2965V21H90.9085V22.568C91.7859 21.2613 93.1765 20.608 95.0805 20.608Z" fill="white"/>
<path d="M41 1L1 1V32.5V64H41" stroke="#FBC710" stroke-width="2"/>
</svg>
